<?xml version="1.0" encoding="UTF-8" standalone="no"?>
<!DOCTYPE svg PUBLIC "-//W3C//DTD SVG 1.1//EN"
 "http://www.w3.org/Graphics/SVG/1.1/DTD/svg11.dtd">
<!-- Generated by graphviz version 2.38.0 (20140413.2041)
 -->
<!-- Title: models_diagram Pages: 1 -->
<svg width="524pt" height="158pt"
 viewBox="0.00 0.00 524.34 158.00" xmlns="http://www.w3.org/2000/svg" xmlns:xlink="http://www.w3.org/1999/xlink">
<g id="graph0" class="graph" transform="scale(1 1) rotate(0) translate(4 154)">
<title>models_diagram</title>
<polygon fill="none" stroke="none" points="-4,4 -4,-154 520.343,-154 520.343,4 -4,4"/>
<!-- _diagram_info -->
<g id="node1" class="node"><title>_diagram_info</title>
<text text-anchor="start" x="8" y="-135.6" font-family="Times,serif" font-size="13.00">Models diagram</text>
<text text-anchor="start" x="8" y="-121.6" font-family="Times,serif" font-size="13.00">Date: Jul 16 2017 &#45; 19:55</text>
<text text-anchor="start" x="8" y="-107.6" font-family="Times,serif" font-size="13.00">Migration version: 20170716233903</text>
<text text-anchor="start" x="8" y="-93.6" font-family="Times,serif" font-size="13.00">Generated by RailRoady 1.5.3</text>
<text text-anchor="start" x="8" y="-79.6" font-family="Times,serif" font-size="13.00">http://railroady.prestonlee.com</text>
</g>
<!-- AnimalType -->
<g id="node2" class="node"><title>AnimalType</title>
<ellipse fill="none" stroke="black" cx="288" cy="-111" rx="55.7903" ry="18"/>
<text text-anchor="middle" x="288" y="-107.3" font-family="Times,serif" font-size="14.00">AnimalType</text>
</g>
<!-- Animal -->
<g id="node3" class="node"><title>Animal</title>
<ellipse fill="none" stroke="black" cx="288" cy="-18" rx="37.8943" ry="18"/>
<text text-anchor="middle" x="288" y="-14.3" font-family="Times,serif" font-size="14.00">Animal</text>
</g>
<!-- AnimalType&#45;&gt;Animal -->
<g id="edge1" class="edge"><title>AnimalType&#45;&gt;Animal</title>
<path fill="none" stroke="#63be96" d="M288,-84.7285C288,-72.7246 288,-58.3622 288,-46.1291"/>
<ellipse fill="none" stroke="#63be96" cx="288" cy="-88.8836" rx="4" ry="4"/>
<polygon fill="#63be96" stroke="#63be96" points="288,-46.0397 292.5,-36.0396 288,-41.0397 288,-36.0397 288,-36.0397 288,-36.0397 288,-41.0397 283.5,-36.0397 288,-46.0397 288,-46.0397"/>
</g>
<!-- ApplicationRecord -->
<g id="node4" class="node"><title>ApplicationRecord</title>
<ellipse fill="none" stroke="black" cx="439" cy="-111" rx="77.1866" ry="18"/>
<text text-anchor="middle" x="439" y="-107.3" font-family="Times,serif" font-size="14.00">ApplicationRecord</text>
</g>
</g>
</svg>
